<svg width="500" height="72" version="1.1" viewBox="0 0 500 72" xmlns="http://www.w3.org/2000/svg">
<path d="m461.17 31.899h-6.4167c-0.1667-0.81194-0.3333-1.7053-0.4167-2.5986-0.1666-0.89334-0.1666-1.7867-0.1666-2.5988 0-1.7054 0.1666-3.3296 0.5833-4.9539h19.833v48.483c-2.3333 0.40611-4.5833 0.56861-6.75 0.56861-2.0833 0-4.3333-0.1625-6.6666-0.56861zm-2-18.272c-0.4167-2.1115-0.5834-4.223-0.5834-6.2532 0-2.0303 0.1667-4.0606 0.5834-6.2532 1.0833-0.16242 2.25-0.32485 3.5-0.40606 1.25-0.16242 2.4166-0.24363 3.4166-0.24363 1.0834 0 2.25 0.0812 3.5834 0.16242 1.25 0.0812 2.5 0.24363 3.5833 0.40606 0.1667 1.0557 0.3333 2.1115 0.4167 3.1672 0.083 1.0557 0.083 2.1115 0.083 3.1672 0 0.97453 0 2.0303-0.083 3.086-0.083 1.0557-0.1667 2.1115-0.4167 3.1672-1.0833 0.16242-2.25 0.32484-3.5 0.40606-1.25 0.0812-2.4167 0.0812-3.5 0.0812-1 0-2.1667 0-3.5-0.0812-1.3333-0.16242-2.5-0.24364-3.5833-0.40606zm-40.253 36.464c0.25 3.7356 1.5833 6.4969 4 8.1211 2.4167 1.7053 5.6667 2.5175 9.5833 2.5175 2.1667 0 4.4167-0.1625 6.6667-0.64972 2.25-0.40611 4.4167-0.97445 6.5-1.7053 0.6667 1.2181 1.3333 2.7611 1.8333 4.4664 0.5 1.7867 0.8334 3.6544 0.8334 5.6036-5 1.8678-10.667 2.8425-16.917 2.8425-4.5833 0-8.5833-0.64972-11.917-1.8681-3.3333-1.218-6-3.0047-8.0833-5.1975-2.0833-2.1925-3.5833-4.8725-4.5833-7.9586-1-3.0861-1.5-6.4156-1.5-10.07 0-3.5733 0.5-6.903 1.5-10.07 1-3.0861 2.5833-5.8472 4.5833-8.1211 2-2.2739 4.5-4.1418 7.5-5.5223 3-1.3806 6.5-2.0303 10.417-2.0303 3.5 0 6.5833 0.56848 9.25 1.7866 2.6666 1.2182 5 2.8424 6.9166 4.8727 1.9167 2.0303 3.3334 4.5478 4.25 7.3903 1 2.8422 1.4167 5.9283 1.4167 9.1767 0 1.2183-0.083 2.3553-0.1667 3.4922-0.083 1.1369-0.1666 2.1114-0.3333 2.7611h-31.75zm19.583-9.3394c-0.1666-3.0047-1-5.3597-2.5833-7.2278-1.5833-1.8678-3.75-2.7611-6.5833-2.7611-3.1667 0-5.6667 0.89333-7.3334 2.5989-1.6666 1.7867-2.6666 4.2228-3 7.39zm-76.917 28.343 22.417-37.113h-19c-0.1666-0.97472-0.3333-1.8681-0.4166-2.68-0.083-0.89334-0.083-1.7867-0.083-2.5988s0-1.6242 0.083-2.3551c0.083-0.81211 0.1666-1.6242 0.4166-2.5176h39.167l0.5 1.137-22.833 37.113h21.167c0.1667 0.97472 0.3334 1.868 0.4167 2.68 0.083 0.89333 0.083 1.7867 0.083 2.5989 0 0.81194 0 1.6242-0.083 2.355-0.083 0.81222-0.1667 1.6242-0.4167 2.5175h-40.583zm-18.997-37.195h-6.4166c-0.16667-0.81194-0.33334-1.7053-0.41667-2.5986-0.0833-0.89334-0.16667-1.7867-0.16667-2.5988 0-1.7054 0.16667-3.3296 0.58334-4.9539h19.833v48.483c-2.3333 0.40611-4.5833 0.56861-6.75 0.56861-2.0833 0-4.3333-0.1625-6.6667-0.56861zm-2-18.272c-0.41666-2.1927-0.58333-4.223-0.58333-6.3345 0-2.0303 0.16667-4.0605 0.58333-6.2532 1.0834-0.16243 2.25-0.32485 3.5-0.40606 1.25-0.0812 2.3334-0.16242 3.4167-0.16242s2.25 0.0812 3.5833 0.16242c1.25 0.0812 2.5 0.24363 3.5834 0.40606 0.1666 1.0557 0.3333 2.1115 0.4166 3.1672 0.083 1.0557 0.083 2.1115 0.083 3.1672 0 0.97453 0 2.0303-0.083 3.086-0.083 1.0557-0.1666 2.1115-0.4166 3.1672-1.0834 0.16242-2.25 0.32484-3.5 0.40606-1.25 0.0812-2.4167 0.0812-3.5 0.0812-1 0-2.1667 0-3.5-0.0812-1.3334-0.16242-2.5-0.24364-3.5834-0.40606zm-28.583-11.938c2.3333-0.40606 4.5833-0.56848 6.8333-0.56848 2.1667 0 4.4167 0.16242 6.75 0.56848v49.214c0 1.9492 0.0833 3.4922 0.33334 4.7103 0.25 1.2183 0.58333 2.1117 1.0833 2.7611 0.5 0.64972 1.0833 1.137 1.9167 1.3808 0.75 0.24361 1.75 0.40583 2.9167 0.40583 0.5 0 1.0833 0 1.6667-0.0811s1.1667-0.1625 1.75-0.24361c0.66667 2.5986 1.0833 5.035 1.0833 7.4714v1.3806c0 0.40611-0.0833 0.89334-0.16666 1.3806-1 0.325-2.25 0.56861-3.6667 0.64972-1.4167 0.1625-2.75 0.1625-4 0.1625-4.9167 0-8.9167-1.2994-11.917-3.9794s-4.5-6.9842-4.5-12.994v-52.219zm-22.831 30.21h-6.4167c-0.16667-0.81194-0.33334-1.7053-0.41667-2.5986-0.0833-0.89334-0.16667-1.7867-0.16667-2.5988 0-1.7054 0.16667-3.3296 0.58334-4.9539h19.833v48.483c-2.3333 0.40611-4.5833 0.56861-6.75 0.56861-2.0833 0-4.3333-0.1625-6.6667-0.56861zm-2-18.272c-0.41666-2.1115-0.58333-4.223-0.58333-6.2532 0-2.0303 0.16667-4.0606 0.58333-6.2532 1.0833-0.16242 2.25-0.32485 3.5-0.40606 1.25-0.16242 2.4167-0.24363 3.4167-0.24363 1.0833 0 2.25 0.0812 3.5833 0.16242 1.25 0.0812 2.5 0.24363 3.5833 0.40606 0.16666 1.0557 0.33333 2.1115 0.41666 3.1672 0.0833 1.0557 0.0833 2.1115 0.0833 3.1672 0 0.97453 0 2.0303-0.0833 3.086-0.0833 1.0557-0.16666 2.1115-0.41666 3.1672-1.0833 0.16242-2.25 0.32484-3.5 0.40606-1.25 0.0812-2.4167 0.0812-3.5 0.0812-1 0-2.1667 0-3.5-0.0812-1.3333-0.16242-2.5-0.24364-3.5833-0.40606zm-54.003-11.938c2.3333-0.40606 4.5833-0.56848 6.75-0.56848 2.25 0 4.5 0.16242 6.8333 0.56848v24.769c1-1.7054 2.5833-3.086 4.8333-4.1418 2.25-1.0557 4.8333-1.6242 7.6667-1.6242 2.9167 0 5.5833 0.48728 8 1.4618 2.5 0.97453 4.5833 2.5176 6.4167 4.5478 1.8333 2.0302 3.1667 4.5478 4.2503 7.6339 1 3.0861 1.5 6.6592 1.5 10.882 0 4.0606-0.66667 7.715-1.917 10.882-1.25 3.2486-3.1667 5.9286-5.5833 8.2025s-5.4167 3.9792-8.9167 5.1975c-3.5 1.2181-7.5 1.8678-11.917 1.8678-1.4167 0-2.9167-0.0811-4.5-0.1625-1.5833-0.0811-3.1667-0.32472-4.75-0.48722-1.5833-0.24361-3.1667-0.48722-4.5833-0.81222-1.5-0.32473-2.8333-0.73084-4-1.137v-67.08zm13.583 58.066c0.75 0.24361 1.5833 0.40583 2.4167 0.48722 0.83333 0.0811 1.75 0.0811 2.6667 0.0811 4.1667 0 7.4167-1.2181 9.8333-3.5733 2.3333-2.355 3.5833-6.0908 3.5833-11.126 0-4.4667-0.75-7.9586-2.25-10.232-1.5-2.3553-4-3.4922-7.5-3.4922-2.5833 0-4.6667 0.81222-6.3333 2.5175-1.6667 1.6242-2.4167 4.3042-2.4167 7.7964zm-35.082-21.44c0-1.4619-0.25-2.68-0.75-3.6547-0.5-0.97444-1.25-1.7053-2.0833-2.1925-0.91667-0.56861-2-0.89333-3.3333-1.0558-1.3333-0.1625-2.75-0.24361-4.4167-0.24361-3.5 0-7.1667 0.64972-11.083 1.9492-0.91667-1.6244-1.5833-3.1672-2-4.6292-0.41667-1.4618-0.66667-3.1672-0.66667-5.1163 2.8333-0.97453 5.6667-1.6242 8.5-2.0303s5.4167-0.64969 7.9167-0.64969c6.6667 0 11.917 1.543 15.667 4.7102 3.75 3.086 5.6667 8.121 5.6667 15.024v28.099c-2.25 0.64972-5 1.3806-8.1667 1.9492-3.1667 0.64972-6.8333 0.97444-10.833 0.97444-3.25 0-6.25-0.24361-9-0.81194-2.75-0.56861-5.0833-1.462-7-2.8425-1.9167-1.2994-3.5-3.0047-4.5-5.035-1.0833-2.0303-1.5833-4.6292-1.5833-7.6339s0.66666-5.5222 2-7.5525c1.3333-2.0303 3-3.6547 5.0833-4.8728 2.0833-1.218 4.4167-2.1114 7-2.5986 2.5833-0.56861 5.1667-0.81222 7.6667-0.81222 1.8333 0 3.9167 0.0811 6.1667 0.24361v-1.2181zm0 9.6639c-0.75-0.16222-1.5833-0.24361-2.5-0.32472-0.91666-0.0811-1.6667-0.1625-2.4167-0.1625-3.1667 0-5.6667 0.56861-7.4167 1.6242-1.8333 1.0558-2.75 2.8425-2.75 5.2789 0 1.6242 0.33333 2.8422 1.0833 3.7356 0.66667 0.89333 1.5833 1.5431 2.5833 1.9492s2.0833 0.64972 3.1667 0.73083c1.0833 0.0814 2.0833 0.1625 2.9167 0.1625 1 0 1.9167-0.0811 2.9167-0.24361 1-0.1625 1.8333-0.325 2.5-0.40611v-12.344zm-57.251-17.379h-6.5l-0.5-1.9492 18.667-23.308h2.3333v14.699h12.083c0.16667 0.97452 0.33334 1.8679 0.41667 2.5988 0.0833 0.81211 0.0833 1.6242 0.0833 2.4363 0 0.89333 0 1.7866-0.0833 2.5988-0.0833 0.81206-0.16667 1.7868-0.41667 2.8423h-12.083v19.734c0 2.0303 0.16667 3.6544 0.5 4.8725 0.33333 1.2183 0.83333 2.1928 1.4167 2.9236 0.66666 0.73083 1.4167 1.2183 2.3333 1.462 0.91667 0.24361 2 0.40583 3.3333 0.40583 1 0 2-0.0811 2.9167-0.24361 1-0.16222 1.8333-0.32472 2.5833-0.40584 0.5 1.2181 0.83334 2.5175 1 3.817 0.16667 1.2992 0.33334 2.5175 0.33334 3.573 0 0.73111 0 1.2994-0.0833 1.7867 0 0.48722-0.0833 0.97472-0.16666 1.3806-3.0833 0.73111-6.25 1.0558-9.5 1.0558-6.0833 0-10.667-1.3806-13.917-4.1417-3.1667-2.7614-4.8333-7.2278-4.8333-13.481v-22.658zm-53.582-8.8521c0.91666-0.16242 1.8333-0.32486 2.6667-0.40605 0.91667-0.0812 1.9167-0.16242 3-0.16242 1.0833 0 2.0833 0.0812 2.9167 0.16242 0.83333 0.0812 1.6667 0.24363 2.5833 0.40605 0.16667 0.32484 0.33334 0.73089 0.5 1.3806 0.16667 0.56848 0.33334 1.2182 0.41667 1.8679 0.16667 0.64966 0.25 1.2994 0.33333 1.949 0.0833 0.6497 0.16667 1.137 0.25 1.6243 0.66667-0.97463 1.4167-1.868 2.3333-2.8425 0.91666-0.97452 1.9167-1.7866 3.1667-2.5175 1.1667-0.73092 2.5-1.3806 4-1.8679 1.5-0.48728 3.0833-0.73092 4.9167-0.73092 5.6667 0 9.9167 1.4618 12.75 4.4666s4.25 7.715 4.25 14.131v30.941c-2.3333 0.40611-4.5833 0.56833-6.8333 0.56833s-4.5-0.16222-6.8333-0.56833v-27.287c0-3.4108-0.5-5.9283-1.5833-7.7964-1.0833-1.7867-2.9167-2.6797-5.5-2.6797-1.0833 0-2.25 0.16222-3.3333 0.48722-1.1667 0.32472-2.1667 0.89334-3.1667 1.8678-0.91667 0.89333-1.6667 2.1928-2.25 3.8169-0.58333 1.6242-0.83333 3.7356-0.83333 6.3344v25.419c-2.3333 0.40583-4.5833 0.56833-6.8333 0.56833s-4.5-0.1625-6.8333-0.56833v-48.564zm-7.8333 14.374c-1-3.0861-2.4167-5.8472-4.4167-8.1211-2-2.2739-4.5-4.0606-7.5-5.3599-3-1.3806-6.5833-2.0303-10.583-2.0303s-7.5833 0.64969-10.5 1.9491c-3 1.3806-5.5 3.1672-7.4167 5.4411-2 2.2739-3.4167 4.9539-4.4167 8.1211-1 3.0861-1.5 6.4156-1.5 9.9889 0 3.5733 0.5 6.9031 1.5 9.9078 1 3.0861 2.5 5.7661 4.4167 8.04 1.9167 2.2739 4.4167 4.0606 7.4167 5.36 3 1.2992 6.5 1.9489 10.5 1.9489s7.5833-0.64972 10.583-1.9489c3-1.2994 5.5-3.0861 7.5-5.36s3.5-4.9539 4.4167-8.04c1-3.0858 1.4167-6.4156 1.4167-9.9078 0-3.5733-0.41667-6.9028-1.4167-9.9889zm-14.75 21.196c-1.5833 2.5989-4.1667 3.898-7.75 3.898-3.5 0-6.0833-1.2992-7.6667-3.898-1.5833-2.5989-2.3333-6.3344-2.3333-11.207 0-4.8725 0.75-8.6083 2.3333-11.207 1.5833-2.5989 4.0833-3.8983 7.6667-3.8983s6.1667 1.2994 7.75 3.8983c1.5833 2.5986 2.3333 6.3344 2.3333 11.207 0 4.8728-0.75 8.6083-2.3333 11.207zm-34.418 1.4617c0.75 1.6244 1.4167 3.2486 1.9167 4.9539 0.5 1.7056 0.83333 3.4108 1.0833 5.1164-3.0833 1.137-5.8333 1.7867-8.3333 2.1928-2.5 0.32472-5.0833 0.48722-7.9167 0.48722-5 0-9.4167-0.81222-13.25-2.3553-3.8333-1.5428-7-3.7356-9.5833-6.578-2.5833-2.8422-4.5-6.2531-5.8333-10.232-1.25-3.8981-1.9167-8.2022-1.9167-12.75 0-4.6289 0.66666-8.9331 2.0833-12.831 1.3333-3.9793 3.3333-7.3902 5.9167-10.233 2.5-3.0048 5.6667-5.2787 9.5-6.8217 3.75-1.6242 8.0833-2.4363 12.833-2.4363 2.8333 0 5.5 0.16242 7.8333 0.48725 2.4167 0.32486 5 1.0558 7.75 2.1927-0.0833 1.7054-0.41666 3.4109-1 5.0351-0.58333 1.6242-1.25 3.3297-2 4.9539-2.0833-0.64969-3.9167-1.1369-5.5-1.4618-1.5833-0.24364-3.5-0.40606-5.6667-0.40606-5.6667 0-10.083 1.7866-13.083 5.4411-3.0833 3.5733-4.5833 8.9333-4.5833 16.08 0 14.131 6.1667 21.115 18.417 21.115 2.1667 0 4.0833-0.1625 5.75-0.40611 1.6667-0.32472 3.5-0.81194 5.5833-1.5431z" fill="#002868"/>
<path d="m500 61.216c0 5.4411-4.5 9.8264-10.083 9.8264-5.5834 0-10.083-4.3853-10.083-9.8264s4.5-9.8267 10.083-9.8267c5.5833 0 10.083 4.3856 10.083 9.8267z" fill="#04f7f7"/>
</svg>
